<svg xmlns="http://www.w3.org/2000/svg" viewBox="0 0 268.476 268.476" width="512" height="512"><path d="M67.119 89.492h-8.95V13.424C58.169 6.009 52.159 0 44.746 0S31.323 6.009 31.323 13.424v76.068h-8.949c-9.885 0-17.898 8.013-17.898 17.898v17.898c0 9.885 8.013 17.898 17.898 17.898h8.949v111.865c0 7.414 6.01 13.424 13.423 13.424 7.414 0 13.424-6.011 13.424-13.424V143.186h8.95c9.884 0 17.897-8.013 17.897-17.898V107.39c-.001-9.885-8.013-17.898-17.898-17.898zm89.492 80.543h-8.95V13.424C147.661 6.01 141.651 0 134.237 0s-13.423 6.009-13.423 13.424v156.611h-8.949c-9.885 0-17.898 8.013-17.898 17.898v17.898c0 9.885 8.013 17.899 17.898 17.899h8.949v31.322c0 7.414 6.009 13.424 13.423 13.424s13.424-6.011 13.424-13.424V223.73h8.95c9.884 0 17.898-8.014 17.898-17.899v-17.898c0-9.885-8.013-17.898-17.898-17.898zm89.491-143.188h-8.949V13.424C237.154 6.009 231.143 0 223.73 0c-7.414 0-13.424 6.009-13.424 13.424v13.423h-8.949c-9.886 0-17.899 8.014-17.899 17.899v17.898c0 9.885 8.013 17.898 17.899 17.898h8.949v174.509c0 7.414 6.01 13.424 13.424 13.424 7.413 0 13.424-6.011 13.424-13.424V80.542h8.949c9.885 0 17.899-8.014 17.899-17.898V44.746c-.001-9.885-8.014-17.899-17.9-17.899z" fill="#f3783b" fill-rule="evenodd" clip-rule="evenodd"/></svg>