<svg xmlns="http://www.w3.org/2000/svg" viewBox="0 0 512 512" width="512" height="512"><path d="M366.576 0H145.424c-22.948 0-41.55 18.602-41.55 41.55v428.9c0 22.948 18.602 41.55 41.55 41.55h221.152c22.948 0 41.55-18.602 41.55-41.55V41.55c0-22.948-18.603-41.55-41.55-41.55zm2.681 470.45c0 .739-1.071 1.34-1.811 1.34H145.895c-.74 0-1.811-.602-1.811-1.34v-77.738h225.173v77.738zm0-117.947H144.084V112.586h225.173v239.917zm0-280.126H144.084V41.55c0-.739 1.071-1.34 1.811-1.34h221.551c.74 0 1.811.602 1.811 1.34v30.827z" fill="#f3783b"/><path d="M276.775 411.476h-41.55c-11.103 0-20.105 9.002-20.105 20.105s9.002 20.105 20.105 20.105h41.55c11.103 0 20.105-9.002 20.105-20.105s-9.002-20.105-20.105-20.105zm-72.098-170.219l11.354-11.354c7.852-7.852 7.852-20.581 0-28.432-7.85-7.852-20.581-7.852-28.432 0L162.03 227.04c-7.852 7.852-7.852 20.581 0 28.432l25.569 25.569c3.926 3.926 9.071 5.889 14.215 5.889s10.291-1.962 14.215-5.889c7.852-7.852 7.852-20.581 0-28.432l-11.352-11.352zm146.634-14.216l-25.569-25.569c-7.85-7.852-20.581-7.852-28.432 0s-7.852 20.581 0 28.432l11.354 11.354-11.354 11.354c-7.852 7.852-7.852 20.581 0 28.432 3.926 3.926 9.071 5.889 14.215 5.889s10.291-1.962 14.215-5.889l25.569-25.569c7.855-7.853 7.855-20.584.002-28.434zm-76.717-62.338c-10.828-2.501-21.614 4.249-24.111 15.069l-26.29 113.927c-2.496 10.819 4.25 21.614 15.069 24.111 1.523.351 3.043.52 4.54.52 9.15 0 17.425-6.29 19.573-15.588l26.29-113.927c2.495-10.82-4.252-21.615-15.071-24.112z" fill="#f3783b"/></svg>