<svg xmlns="http://www.w3.org/2000/svg" viewBox="0 0 489.289 489.289" width="512" height="512"><path d="M459.496 132.289c0-.4 0-.7-.1-1.1v-.4c-.1-.5-.1-.9-.2-1.4 0-.2-.1-.3-.1-.5-.1-.4-.2-.7-.3-1.1 0-.1-.1-.2-.1-.3-.2-.5-.3-.9-.5-1.4 0-.1-.1-.2-.1-.3-.4-1-.9-1.9-1.5-2.7-.1-.1-.1-.2-.2-.3l-.9-1.2c-.1-.1-.2-.2-.2-.3-.2-.3-.5-.5-.8-.8-.1-.1-.3-.2-.4-.4-.3-.3-.7-.6-1-.9-.1-.1-.2-.2-.4-.3-.3-.2-.5-.4-.8-.6-.1-.1-.3-.2-.4-.3-.1 0-.1-.1-.2-.1l-195.1-115.5c-5.3-3.1-11.8-3.2-17.2-.2l-197.6 110.9c-.1 0-.1.1-.2.1-.1.1-.3.2-.4.3l-.9.6c-.1.1-.3.2-.4.3-.4.3-.7.6-1 .8-.1.1-.3.2-.4.4-.3.2-.5.5-.8.8l-.3.3c-.3.4-.6.7-.9 1.1-.1.1-.2.2-.2.3-.3.4-.6.8-.8 1.3 0 0 0 .1-.1.1-.2.3-.3.6-.5.9-.1.2-.1.3-.2.5s-.2.4-.3.5l-.3.6c-.1.1-.1.3-.2.4-.1.2-.2.5-.2.7 0 .1-.1.2-.1.3-.1.3-.1.5-.2.8 0 .1 0 .2-.1.3-.1.3-.1.6-.2.9v.2c0 .3-.1.6-.1.9v1.6l-2.8 226.4c-.1 6.1 3.1 11.8 8.3 14.9l196 117.5c2.7 1.6 5.8 2.4 8.8 2.4 2.9 0 5.8-.7 8.4-2.2l197.7-110.9c5.4-3 8.7-8.7 8.8-14.8l1.7-228.4v-.7zm-212.3-95.4l160.9 95.5-163.1 91.6-160.9-95.5 163.1-91.6zm-180.6 121.1l161 95.6v189.4l-163.3-97.9 2.3-187.1zm195.2 284v-188.1l163.2-91.6-1.4 188.9-161.8 90.8z" fill="#f3783b"/></svg>