<svg xmlns="http://www.w3.org/2000/svg" viewBox="0 0 392.581 392.581" width="512" height="512"><g fill="#f3783b"><path d="M385.821 311.946h-21.003l-.001-115.444v-77.137c0-8.174-6.628-14.805-14.804-14.805h-16.735l-10.594 25.759h16.375v171.496H53.655V130.319h37.559l31.221-25.759H42.702c-8.177 0-14.806 6.63-14.806 14.805v192.581H6.761A6.762 6.762 0 0 0 0 318.71c0 16.051 13.06 29.112 29.113 29.112h235.222v-12.588a8.11 8.11 0 0 1 16.218 0v12.588h13.298v-12.588a8.11 8.11 0 0 1 16.219 0v12.588h53.396c16.055 0 29.115-13.062 29.115-29.112a6.76 6.76 0 0 0-6.76-6.764z"/><path d="M92.124 161.54l49.748-36.008 35.725 43.174 4.294 5.19 6.339-4.294 94.742-64.162 15.304 18.536a3.386 3.386 0 0 0 5.745-.869l30.301-73.673a3.388 3.388 0 0 0-3.805-4.609L252.44 60.63a3.386 3.386 0 0 0-1.94 5.477l13.948 16.894-80.761 69.602-37.71-36.095-3.132-2.998-2.875 2.513-50.93 42.017c.276.33 2.829 3.154 3.084 3.5zm111.5 88.318v26.333a8 8 0 0 0 8 8 8 8 0 0 0 8-8v-26.333a8 8 0 0 0-8-8 8 8 0 0 0-8 8zm-22-41a8 8 0 0 0-8 8v59.333a8 8 0 0 0 8 8 8 8 0 0 0 8-8v-59.333a8 8 0 0 0-8-8zm-38 41v26.333a8 8 0 0 0 8 8 8 8 0 0 0 8-8v-26.333a8 8 0 0 0-8-8 8 8 0 0 0-8 8zm-30-33v59.333a8 8 0 0 0 8 8 8 8 0 0 0 8-8v-59.333a8 8 0 0 0-8-8 8 8 0 0 0-8 8zm-24.171-28.695a7.925 7.925 0 0 0-1.956.85 7.988 7.988 0 0 0-3.873 6.845v80.333a8 8 0 0 0 8 8 8 8 0 0 0 8-8v-80.333a8 8 0 0 0-8-8c-.753 0-1.48.111-2.171.305zm223.837 39.862h-36.667a8 8 0 1 0 0 16h36.667a8 8 0 0 0 0-16zm0 35h-36.667a8 8 0 1 0 0 16h36.667a8 8 0 0 0 0-16z"/></g></svg>