<svg id="Layer_1" xmlns="http://www.w3.org/2000/svg" viewBox="0 0 1048.2 508.7"><style>.st0{fill:#f3783b}.st1{fill:#fff}</style><path class="st0" d="M182.5 185.5H0V3.1h182.5v182.4zm-51.4-131H51.4v79.7h79.7V54.5z"/><path class="st1" d="M296.7 465.3c.6 0 5.5 0 8.5 1.9 3 2 5.3 5.7 5.3 10.3 0 5.2-3.1 12.4-13.8 12.4h-10.8v18h-4v-42.6h14.8zm-10.8 3.6v17.5h9.7c4.5 0 10.7-1.3 10.7-8.8 0-8.6-7.8-8.7-10.7-8.7h-9.7zm61.2 14.8v-18.4h4.1V508h-4.1v-20.7h-24.5V508h-4v-42.6h4v18.4h24.5zm19.9-18.4V508h-4v-42.6h4zm15.9 0v39.1h21.5v3.6h-25.5v-42.6l4-.1zm61.7 21.3c0 9.1-4.2 22-19.8 22-15.8 0-19.8-13.4-19.8-22 0-8.9 4.2-22 19.8-22 15.8 0 19.8 13.5 19.8 22zm-31.1-13.7c-3.3 3.8-4.4 8.8-4.4 13.7 0 14.7 9.6 18.7 15.7 18.7 6 0 15.7-4 15.7-18.7 0-13.4-8.3-18.7-15.7-18.7-1.5 0-7.3.4-11.3 5zm63 3.8c-.1-2-.8-8.8-10.1-8.8-6.1 0-9.9 3.3-9.9 7.7 0 5.6 5.4 7.1 10 8.1 6.7 1.4 15.2 3.2 15.2 12.4 0 4.8-3.2 12.5-15.1 12.5-8.1 0-14.8-3-15.8-13.5l4-.4c.2 1.6.4 3.6 1.7 5.7 2.6 4.2 7.2 4.8 9.8 4.8 6.1 0 11.4-3 11.4-8.9 0-6.4-7.3-7.7-11.1-8.5-5.7-1.1-14.1-2.9-14.1-12 0-6.1 4.6-11.4 13.6-11.4 4.4 0 9.4 1 12.2 5.1 1.8 2.7 2 5 2.1 6.9l-3.9.3zm51.5 9.9c0 9.1-4.2 22-19.8 22-15.8 0-19.8-13.4-19.8-22 0-8.9 4.2-22 19.8-22 15.9 0 19.8 13.5 19.8 22zm-31.1-13.7c-3.3 3.8-4.4 8.8-4.4 13.7 0 14.7 9.6 18.7 15.7 18.7 6 0 15.7-4 15.7-18.7 0-13.4-8.3-18.7-15.7-18.7-1.5 0-7.2.4-11.3 5zm54.9-7.6c.6 0 5.5 0 8.5 1.9 3 2 5.3 5.7 5.3 10.3 0 5.2-3.1 12.4-13.8 12.4H541v18h-4.1v-42.6h14.9zm-10.8 3.6v17.5h9.6c4.5 0 10.7-1.3 10.7-8.8 0-8.6-7.8-8.7-10.7-8.7H541zm61.2 14.8v-18.4h4V508h-4v-20.7h-24.5V508h-4v-42.6h4v18.4h24.5zm14.7-18.4l13 20.5 13.3-20.5h4.6l-16.1 24.2V508h-4.1v-18.4l-15.5-24.2h4.8zm83.7 23.7c-1.5 4.4-2.2 6.1-4.2 9.6.1.2.7.8.9 1 2.6 2.7 3.1 3.3 6.1 5.9l-2.5 3.2c-2.3-1.8-5.3-4.9-6.8-6.6-1.8 2.5-4.9 6.6-11.8 6.6-8.6 0-13.6-6.4-13.6-12.4 0-6.8 5.4-9.9 10-12.5-4.2-5.5-4.7-7.8-4.7-9.5 0-4.3 3.3-9.6 9.8-9.6 6.7 0 9.5 5.2 9.5 9.3 0 4.7-4.2 8-9.2 10.5.1.2.7.9.8 1 2.8 3.5 3.4 4.2 8.6 10.2 1.4-2.7 1.6-3.2 3.3-7.5l3.8.8zm-27.9 6.6c0 4.7 3.9 9.8 9.3 9.8s8.5-4.6 9.5-6.1c-2.3-2.3-8.6-9.9-10.8-12.9-4.3 2.4-8 4.8-8 9.2zm16.9-21.8c0-3.3-2.5-5.8-5.6-5.8-3.3 0-6 2.7-6 5.8 0 2.4 1.4 4.3 3.5 7.1.2.3.7.8.7.9 3.8-2 7.4-4.2 7.4-8zm63.6 10.4v3.6h-21.5v16.6h24.1v3.6h-28.1v-42.6H755v3.6h-23.2v15.4l21.4-.2zm10.6-18.9l13.4 38.3h.1l13.9-38.3h4L779.3 508h-4.2l-15.6-42.6h4.3zm72.9 21.3c0 9.1-4.2 22-19.8 22-15.8 0-19.8-13.4-19.8-22 0-8.9 4.2-22 19.8-22 15.9 0 19.8 13.5 19.8 22zm-31.1-13.7c-3.3 3.8-4.4 8.8-4.4 13.7 0 14.7 9.6 18.7 15.7 18.7 6 0 15.7-4 15.7-18.7 0-13.4-8.3-18.7-15.7-18.7-1.4 0-7.2.4-11.3 5zm44.1-7.6v39.1h21.5v3.6h-25.6v-42.6l4.1-.1zm29.5 0v27.3c0 3.8.2 12.7 12.3 12.7 9.3 0 12.2-5.6 12.2-12.6v-27.4h4v27c0 10.4-5.1 16.4-16.2 16.4-11.7 0-16.4-5.8-16.4-16.4v-27h4.1zm65.8 0v3.8h-13V508h-4v-38.9h-13v-3.8h30zm12.1 0V508h-4v-42.6h4zm49.6 21.3c0 9.1-4.2 22-19.8 22-15.8 0-19.8-13.4-19.8-22 0-8.9 4.2-22 19.8-22 15.9 0 19.8 13.5 19.8 22zm-31.1-13.7c-3.3 3.8-4.4 8.8-4.4 13.7 0 14.7 9.6 18.7 15.7 18.7 6 0 15.7-4 15.7-18.7 0-13.4-8.3-18.7-15.7-18.7-1.4 0-7.2.4-11.3 5zm44.1-7.6l24.7 36.9h.2v-36.9h3.7V508h-4.3l-24.5-36.6h-.1V508h-3.7v-42.6h4zM229.3 3.1h58.9l41.1 131.3L369.8 3.1H427l-67.7 182.4h-61.1L229.3 3.1zm211.5 0h56.5v182.4h-56.5V3.1zM521 125.2l53.6-3.4c1.2 8.7 3.5 15.3 7.1 19.9 5.8 7.4 14.1 11.1 24.9 11.1 8 0 14.2-1.9 18.6-5.7 4.4-3.8 6.5-8.2 6.5-13.1 0-4.7-2.1-9-6.2-12.7-4.1-3.7-13.8-7.3-28.9-10.6-24.7-5.6-42.4-12.9-52.9-22.2-10.6-9.2-15.9-20.9-15.9-35.2 0-9.4 2.7-18.2 8.2-26.6 5.4-8.3 13.6-14.9 24.5-19.7 11-4.6 25.9-7 44.9-7 23.3 0 41.1 4.3 53.3 13 12.2 8.7 19.5 22.5 21.8 41.4l-53.1 3.1c-1.4-8.2-4.4-14.2-8.9-17.9-4.5-3.7-10.8-5.6-18.7-5.6-6.6 0-11.5 1.4-14.8 4.2-3.3 2.8-5 6.2-5 10.1 0 2.9 1.4 5.5 4.1 7.8 2.7 2.4 9 4.6 18.9 6.7 24.6 5.3 42.3 10.7 52.9 16.1 10.7 5.4 18.4 12.2 23.3 20.2 4.9 8 7.3 17 7.3 27 0 11.7-3.2 22.5-9.7 32.4-6.5 9.9-15.5 17.4-27.1 22.5-11.6 5.1-26.3 7.7-43.9 7.7-31 0-52.5-6-64.5-17.9-11.9-12-18.7-27.2-20.3-45.6zM695.2 3.1h171.4v45h-57.5v137.4h-56.4V48.2h-57.5V3.1zm284.9 152.3h-64l-8.9 30.1h-57.6L918.2 3.1h61.5l68.6 182.4h-59l-9.2-30.1zM968.4 116l-20.1-65.6-20 65.6h40.1zM1.4 227.1h73.5c43.7 0 57.8 23.9 57.8 47.5 0 19.8-14.4 36.5-35.7 39.1l.5.5c4.9-.8 41.4 8 41.4 45 0 33.4-25.7 51.4-64 51.4H1.4V227.1zm11.3 83.2h62.2c30.6 0 46.5-15.4 46.5-37.8 0-26.5-22.1-35.7-46.5-35.7H12.7v73.5zm0 90.5h62.2c32.4 0 52.7-14.4 52.7-41.6 0-31.3-28.5-39.1-52.7-39.1H12.7v80.7zm139.6-173.7h76.6c32.1 0 58.1 11.8 58.1 47.3 0 24.7-14.9 42.9-39.3 47v.5c27.2 3.1 33.9 20.3 35.7 39.3 1.8 19-1.3 39.6 6.2 49.3H277c-6.9-12.6-2.8-33.7-4.9-51.4-2.3-17.7-11-32.1-43.2-32.1h-65.3v83.5h-11.3V227.1zm76.5 90.2c26.7 0 46.8-12.6 46.8-42.1 0-27.8-22.1-38.3-46.8-38.3h-65.3v80.4h65.3zm153.4 97.6c-55 0-87.4-42.4-87.4-96.1 0-53.7 32.4-96.1 87.4-96.1 54.7 0 87.1 42.4 87.1 96.1 0 53.7-32.3 96.1-87.1 96.1zm0-9.8c47.8 0 75.8-39.3 75.8-86.3s-28-86.3-75.8-86.3c-48 0-76.1 39.3-76.1 86.3.1 47 28.1 86.3 76.1 86.3zm100.2-178h11.3v105.6l115.4-105.6h14.6L540 303.4l88.9 107.1h-14.1l-83-99.4-38 34.7v64.7h-11.3l-.1-183.4zm271.1 173.7v9.8H628.9V227.1h123.3v9.8h-112v73.5h105.3v9.8H640.2v80.7l113.3-.1zm8.2-173.7h76.6c32.1 0 58.1 11.8 58.1 47.3 0 24.7-14.9 42.9-39.3 47v.5c27.2 3.1 33.9 20.3 35.7 39.3 1.8 19-1.3 39.6 6.2 49.3h-12.6c-6.9-12.6-2.8-33.7-4.9-51.4-2.3-17.7-11-32.1-43.2-32.1H773v83.5h-11.3V227.1zm76.6 90.2c26.7 0 46.8-12.6 46.8-42.1 0-27.8-22.1-38.3-46.8-38.3H773v80.4h65.3zm194-37.8c-1.3-31.3-24.9-47-58.8-47-20.8 0-50.4 8.7-50.4 39.1 0 29.5 31.3 34.4 62.4 40.9 31.3 6.4 62.7 14.4 62.7 50.9 0 38-36.5 51.6-64.5 51.6-42.9 0-77.9-17.7-77.3-65h11.3c-2.3 40.1 29.8 55.2 66 55.2 22.1 0 53.2-10 53.2-41.9 0-31.1-31.3-36.5-62.7-42.9-31.1-6.4-62.4-13.9-62.4-48.8 0-35.2 32.6-48.8 61.7-48.8 38.3 0 68.3 16.4 70.1 56.8l-11.3-.1z"/><path class="st0" d="M1.4 482.8h255.7v23.9H1.4z"/></svg>